<?xml version="1.0" standalone="no"?>
<!DOCTYPE svg PUBLIC "-//W3C//DTD SVG 20010904//EN"
 "http://www.w3.org/TR/2001/REC-SVG-20010904/DTD/svg10.dtd">
<svg version="1.0" xmlns="http://www.w3.org/2000/svg"
 width="180.000000pt" height="180.000000pt" viewBox="0 0 180.000000 180.000000"
 preserveAspectRatio="xMidYMid meet">
<metadata>
Created by potrace 1.14, written by Peter Selinger 2001-2017
</metadata>
<g transform="translate(0.000000,180.000000) scale(0.100000,-0.100000)"
fill="#000000" stroke="none">
<path d="M295 1715 c-122 -28 -216 -122 -240 -240 -11 -57 -11 -680 0 -730 4
-16 8 -37 9 -47 1 -9 7 -22 13 -30 6 -7 13 -20 15 -28 2 -8 13 -25 25 -36 12
-12 19 -25 16 -28 -4 -3 -1 -6 6 -6 6 0 22 -9 33 -20 12 -11 44 -30 70 -42 26
-12 48 -25 48 -29 0 -5 -18 -59 -41 -121 -22 -62 -41 -117 -43 -123 -1 -5 -4
-14 -7 -20 -6 -9 -32 -84 -34 -95 0 -3 -6 -15 -13 -27 -15 -28 -18 -28 54 -2
32 12 65 21 72 22 6 0 12 4 12 9 0 4 3 7 8 6 12 -3 126 33 140 44 6 6 12 8 12
5 0 -4 20 2 45 13 25 11 47 19 50 20 3 0 15 2 28 5 12 3 229 7 482 8 l460 2
58 29 c70 36 120 89 156 165 l26 56 0 370 0 370 -29 63 c-44 95 -118 155 -233
188 -7 2 -13 10 -13 19 0 30 -43 106 -84 146 -22 23 -66 53 -96 68 l-55 26
-450 1 c-310 1 -466 -3 -500 -11z"/>
</g>
</svg>
